<?xml version="1.0" encoding="UTF-8" standalone="no"?>
<!-- Created with Inkscape (http://www.inkscape.org/) -->

<svg
   xmlns:dc="http://purl.org/dc/elements/1.1/"
   xmlns:cc="http://creativecommons.org/ns#"
   xmlns:rdf="http://www.w3.org/1999/02/22-rdf-syntax-ns#"
   xmlns:svg="http://www.w3.org/2000/svg"
   xmlns="http://www.w3.org/2000/svg"
   xmlns:sodipodi="http://sodipodi.sourceforge.net/DTD/sodipodi-0.dtd"
   xmlns:inkscape="http://www.inkscape.org/namespaces/inkscape"
   width="96.445915mm"
   height="78.379463mm"
   viewBox="0 0 341.73749 277.72251"
   id="svg2"
   version="1.1"
   inkscape:version="0.91 r13725"
   sodipodi:docname="twitterLogo.svg">
  <defs
     id="defs4" />
  <g
     id="layer1"
     transform="translate(-174.84554,-244.92953)">
    <g
       transform="matrix(1.25,0,0,-1.25,174.84554,522.65203)"
       id="g4144">
      <path
         d="m 273.39,195.877 c -10.059,-4.461 -20.869,-7.476 -32.215,-8.832 11.581,6.942 20.474,17.934 24.662,31.032 -10.837,-6.428 -22.841,-11.096 -35.617,-13.612 -10.232,10.901 -24.809,17.713 -40.941,17.713 -30.977,0 -56.091,-25.113 -56.091,-56.088 0,-4.396 0.497,-8.677 1.453,-12.782 -46.6156,2.339 -87.9445,24.669 -115.609,58.603 -4.8281,-8.284 -7.5933,-17.918 -7.5933,-28.198 0,-19.459 9.9019,-36.627 24.9519,-46.685 -9.1941,0.291 -17.8426,2.814 -25.4051,7.015 -0.0042,-0.234 -0.005,-0.468 -0.005,-0.705 0,-27.176 19.334,-49.8458 44.9929,-54.9982 -4.7066,-1.2816 -9.6621,-1.9668 -14.7769,-1.9668 -3.6145,0 -7.1281,0.3508 -10.5527,1.0059 7.1375,-22.284 27.8511,-38.5 52.3953,-38.9527 C 63.843,33.3832 39.6582,24.416 13.3801,24.416 8.85273,24.416 4.38789,24.6809 0,25.1988 24.8223,9.28516 54.3047,0 85.9797,0 189.148,0 245.564,85.4672 245.564,159.586 c 0,2.432 -0.054,4.851 -0.162,7.256 10.958,7.908 20.468,17.787 27.988,29.035"
         style="fill:#6aa9e0;fill-opacity:1;fill-rule:nonzero;stroke:none"
         id="path4148"/>
    </g>
  </g>
</svg>
