<svg version="1" xmlns="http://www.w3.org/2000/svg" width="933.333" height="933.333" viewBox="0 0 700.000000 700.000000"><path d="M385.5 25.2c-12.5 1.7-23.3 6.7-45.3 21.2-12.7 8.4-22.3 13.4-32.3 17-4.6 1.7-9.5 6.2-22.7 21.1-12.9 14.5-30.3 39.7-29.8 43.2.2 1 2.7 2.4 6.9 3.9 8.9 2.9 15.1 7.1 23 15.2 12.7 13 16.7 19.2 25.3 38.9 8.2 18.8 9.3 21.1 13.1 28.8 10 19.8 22.6 32 37.8 36.4 6.8 2 19.7 3.7 27 3.5 3.9 0 11.7-1.1 17.5-2.3 8.3-1.8 11.1-2.1 13.3-1.2 3.4 1.3 6.3 7.3 7.2 15.1 1.3 11.5 1.7 13.7 3.7 21 4.6 16.7 15.5 35.7 27.4 47.6 7.5 7.6 11 9.6 24.8 14 6.6 2.2 10.2 2.7 19.1 2.8 10 .1 11.5-.1 16.8-2.6 10.3-4.9 17-14 19.7-27.1.7-3.3 1.3-17 1.5-32.2l.2-26.5 2.7-3.4c1.4-1.9 5.1-4.9 8.1-6.6 3-1.7 6.7-4.6 8-6.5 5.4-7 5.4-21.3-.1-39.3-4.4-14.3-7.8-21.4-11.7-24.4-5.3-4-6.7-5.7-6.7-8.6-.5-34.8-2.2-43.5-10.7-57-6.1-9.6-13.5-15.7-25.3-20.5-11.2-4.6-20.1-6-38-6-14.6 0-17 .4-23.1 4.4-6.8 4.3-7.4 3.4-5.4-7.7 1.3-6.4 1.6-12.5 1.3-21.9-.4-11.9-.6-13.3-3-17-2.9-4.6-13.3-14.5-18.7-17.9-8.4-5.3-18.9-7.1-31.6-5.4z"/><path d="M287.5 67.8c-7.1 1.4-34.1 12.3-49.6 20.1-22.6 11.3-33.1 19.7-53.9 43.4-12.8 14.5-14.6 14.3-17.2-1.3-.9-5.7-2.3-11.7-2.9-13.3-2.7-6.5-15.3-12.4-24.1-11.4-6.2.8-13.1 4.5-31.3 17-26 17.9-31.2 24.4-35.1 43.7-1.2 5.7-.3 69.3 1.1 86 .2 3 .7 8.8 1.1 12.9.3 4.1.7 8.7.9 10.1 1 7.9 2.9 19.3 4.2 25 .8 3.6 1.8 8.3 2.3 10.5 1.7 7.5 4.7 15 6.2 15.3.8.1 2.8-1.9 4.6-4.7 6.3-9.7 27.8-26.9 38.3-30.6 6.4-2.3 18.3-1.7 31.9 1.6 18.3 4.4 21.5 4.9 34.5 4.9 9.9.1 20-1.7 29.1-5.1 10.8-4.1 17.5-8.4 25-16.2 11.1-11.6 15.5-24.5 15.7-46.2.1-12.2-.7-25.9-1.8-31.4-1.9-9.6-15.7-13.9-29.4-9.2-5.7 2-8 1.8-8.2-.5-.1-.8-.2-2-.3-2.7-.7-5.3 23.8-65.9 29.6-73.2.5-.6 4.1-5.5 8.1-11s10.9-14.3 15.3-19.5c11.3-13.5 10.6-12.6 9.2-13.7-.7-.5-2.2-.8-3.3-.5z"/><path d="M66 248.2c-.9 2.3-6.6 30.4-9.5 47.3-3.8 22.2-4 60.3-.4 76.4.6 2.5 1.5 6.6 2.1 9.1 3.7 16.3 15.7 45.3 25.7 62.8 16.8 29.1 42.7 56.1 67.4 70.3 21 12.1 30.3 19.1 32.7 24.8 1.7 4.1.3 6.1-6.9 10-7.3 3.9-9.1 5.5-9.1 8.5 0 4.6 5.1 11.8 12 16.9 4.5 3.2 25.4 13.7 35.6 17.7 13.8 5.5 19.5 4.4 39.8-8.3 20.5-12.8 40.3-19 49.2-15.2 3.7 1.5 6.5 6.9 6.6 12.5.1 5.4-3.7 11.6-10.4 17-5.9 4.8-11.7 7-23.4 9.1-13.7 2.5-17.9 8.1-17.9 23.9 0 7.7.4 10.3 2.2 14 5 10.3 19.1 20 29.3 20 1.9 0 6.9-.8 11.1-1.8 7.9-1.9 9.8-2 37.9-.6 45.3 2.1 66.9-.6 89.9-11.3 10.9-5.1 23.8-18.5 37.3-38.7 14.2-21.1 23.6-28.3 33.7-25.6 4.7 1.2 7.2 4 9.9 11 2.4 6.2 3.2 10.1 4.7 21.8.6 5.3 3.9 10.5 8.1 13 8.9 5.2 28.7-.4 38.2-10.8 2.5-2.8 14.9-21.2 20.8-31 2.1-3.6 9.3-14.6 15.8-24.4 14.8-22.2 20-32 27.7-52.2 3.3-8.7 10.2-24.2 15.3-34.4 12.4-24.8 16.2-36.3 18-55 3.1-30.7 2.5-39.6-4.4-59.4-6.2-17.7-16.1-37.6-19.8-39.8-3.8-2.2-6.9-.8-9.2 4.4-2.7 6.3-2.9 7.6-4.5 37.3-.5 10.2-1.2 13-4.8 20.1-7.3 14.3-14.6 19.4-32.4 22.3-10 1.7-33.4 2.1-39.8.8-1.1-.3-4.2-.8-6.8-1.1-2.7-.4-5.9-1-7-1.2-1.2-.3-7.2-.7-13.3-.9-10.3-.4-11.4-.3-13.9 1.7-2.6 2.1-2.7 2.4-2.2 9.7.3 5.3 2 12.4 5.6 23.6 7.9 24.7 8.8 33.9 4 39.1-3.5 3.7-9.7 2.7-17.4-2.8-6.4-4.6-8.8-9.3-13.9-27.4-2.6-9.3-5.9-19.3-7.4-22.2-3.4-6.6-9.7-13.1-16.5-16.8-4.6-2.5-6.2-2.8-13.2-2.8-4.4.1-12.3.8-17.5 1.7-10.9 1.8-24 1.5-32-.7-3-.8-10.5-3.8-16.5-6.6-20.2-9.6-19.5-9.3-27.5-9.3-8.4 0-14.2 2.2-17.9 6.8-2.9 3.8-5.1 12.1-5.7 22.2-.7 10.8.7 16.7 7.4 31.9 10.1 22.5 10.2 27.6.8 32.2-5.7 2.7-8.6 3.3-17.4 3.3-18.6-.1-38.8-12.1-47-27.9-1.7-3.2-5.7-14-9.1-24.2-8-24.2-10.8-29.7-20.1-39.4-27.2-28.3-55.5-38.4-65-23-2.6 4.1-3.2 12.1-1.6 21.9 1.7 10.4 1.6 12.4-.7 14.6-3.1 3-9.4 2.1-19.2-2.6-19-9.1-38.4-24.9-48.8-39.6-4.3-6.1-13.4-22.9-16.5-30.5-3.9-9.7-10.4-32-12.8-43.9-2.3-11.6-5.1-37-5.3-47.8-.1-3.3-2.7-3.7-4.1-.5z"/></svg>