# Blender 5.1.1
# www.blender.org
o watering_trigger.002
v 0.007109 0.007432 0.014162
v 0.007109 0.009182 0.014544
v 0.007109 0.006844 -0.030068
v 0.007109 0.008489 -0.030068
v 0.007109 0.007896 0.015608
v 0.007109 0.008759 0.016354
v 0.007109 0.029817 0.025024
v 0.007109 0.030342 0.023424
v 0.007109 0.032628 0.025844
v 0.007109 0.032601 0.024160
v 0.007109 0.036660 0.025869
v 0.007109 0.036731 0.024186
v 0.007109 0.040978 0.026999
v 0.007109 0.041527 0.025407
v 0.007109 0.048409 0.030170
v 0.007109 0.049223 0.028695
v 0.007109 0.051381 0.031989
v 0.007109 0.052195 0.030515
v 0.007109 0.053575 0.029557
v 0.002897 0.053575 0.029557
v 0.007109 0.054984 0.031416
v 0.002897 0.054984 0.031416
v 0.007109 0.053684 0.034793
v 0.007109 0.055637 0.035519
v 0.002897 0.055637 0.035519
v 0.007109 0.057481 0.035068
v 0.002897 0.057481 0.035068
v 0.007109 0.058222 0.033529
v 0.002897 0.058222 0.033529
v 0.007109 0.057249 0.031626
v 0.002897 0.057249 0.031626
v 0.002897 0.054263 0.033366
v 0.002897 0.053624 0.034760
v 0.002929 0.052195 0.030515
v 0.002219 0.008567 -0.025863
v 0.003334 0.008572 -0.023528
v 0.002288 0.008580 -0.021053
v 0.001626 0.009806 -0.021942
v 0.002184 0.009813 -0.023545
v 0.001556 0.009751 -0.025218
v 0.002258 0.006844 -0.030068
v 0.004724 0.006870 -0.028086
v 0.006163 0.006921 -0.024278
v 0.005929 0.006989 -0.020165
v 0.003679 0.007026 -0.017144
v 0.003527 0.004487 -0.017331
v 0.005336 0.004446 -0.020355
v 0.005363 0.004540 -0.024013
v 0.003973 0.004560 -0.027582
v 0.002055 0.004646 -0.029644
v 0.001768 0.003613 -0.028517
v 0.003311 0.003568 -0.027012
v 0.004452 0.003479 -0.023821
v 0.004186 0.003373 -0.020746
v 0.002707 0.003431 -0.018574
v 0.002101 -0.001146 -0.019275
v 0.003470 -0.001106 -0.020983
v 0.002962 -0.000762 -0.023103
v 0.001702 -0.000706 -0.024449
v 0.000783 -0.000683 -0.024953
v 0.000865 -0.002663 -0.022468
v 0.000839 -0.002943 -0.021277
v -0.007109 0.007432 0.014162
v -0.007109 0.009182 0.014544
v -0.007109 0.006844 -0.030068
v -0.007109 0.008489 -0.030068
v -0.000000 0.006844 -0.030068
v -0.007109 0.007896 0.015608
v -0.007109 0.008759 0.016354
v -0.007109 0.029817 0.025024
v -0.007109 0.030342 0.023424
v -0.007109 0.032628 0.025844
v -0.007109 0.032601 0.024160
v -0.007109 0.036660 0.025869
v -0.007109 0.036731 0.024186
v -0.007109 0.040978 0.026999
v -0.007109 0.041527 0.025407
v -0.007109 0.048409 0.030170
v -0.007109 0.049223 0.028695
v -0.007109 0.051381 0.031989
v -0.007109 0.052195 0.030515
v -0.007109 0.053575 0.029557
v -0.002897 0.053575 0.029557
v -0.007109 0.054984 0.031416
v -0.002897 0.054984 0.031416
v -0.007109 0.053684 0.034793
v -0.007109 0.055637 0.035519
v -0.002897 0.055637 0.035519
v -0.007109 0.057481 0.035068
v -0.002897 0.057481 0.035068
v -0.007109 0.058222 0.033529
v -0.002897 0.058222 0.033529
v -0.007109 0.057249 0.031626
v -0.002897 0.057249 0.031626
v -0.002897 0.054263 0.033366
v -0.002897 0.053624 0.034760
v -0.002929 0.052195 0.030515
v -0.000000 0.008565 -0.026770
v -0.000000 0.008583 -0.020181
v -0.002219 0.008567 -0.025863
v -0.003334 0.008572 -0.023528
v -0.002288 0.008580 -0.021053
v -0.001626 0.009806 -0.021942
v -0.000000 0.009807 -0.021227
v -0.002184 0.009813 -0.023545
v -0.001556 0.009751 -0.025218
v -0.000000 0.009805 -0.025706
v -0.002258 0.006844 -0.030068
v -0.000000 0.007041 -0.016008
v -0.004724 0.006870 -0.028086
v -0.006164 0.006921 -0.024278
v -0.005929 0.006989 -0.020165
v -0.003679 0.007026 -0.017144
v -0.000000 0.004525 -0.015980
v -0.003527 0.004487 -0.017331
v -0.005336 0.004446 -0.020355
v -0.005363 0.004540 -0.024013
v -0.003973 0.004560 -0.027582
v -0.002055 0.004646 -0.029644
v -0.000000 0.004664 -0.030119
v -0.000000 0.003542 -0.028994
v -0.001768 0.003613 -0.028517
v -0.003311 0.003568 -0.027012
v -0.004452 0.003479 -0.023821
v -0.004186 0.003373 -0.020746
v -0.002707 0.003431 -0.018574
v -0.000000 0.003422 -0.017626
v -0.000000 -0.001459 -0.018773
v -0.002101 -0.001146 -0.019275
v -0.003470 -0.001106 -0.020983
v -0.002962 -0.000762 -0.023103
v -0.001702 -0.000706 -0.024449
v -0.000783 -0.000683 -0.024953
v -0.000000 -0.000656 -0.025139
v -0.000000 -0.002917 -0.020736
v -0.000000 -0.002346 -0.023288
v -0.000865 -0.002663 -0.022468
v -0.000839 -0.002943 -0.021277
vn -0.0000 -0.8342 0.5514
vn -0.0000 -0.9870 0.1610
vn 1.0000 -0.0000 -0.0000
vn -0.0000 -0.0896 -0.9960
vn 0.4043 -0.1979 -0.8930
vn 0.3851 -0.4567 -0.8020
vn -0.0000 -0.4197 -0.9077
vn -0.0000 -0.9999 0.0133
vn -0.0000 -0.9999 0.0131
vn -0.0000 -0.9999 0.0130
vn -0.0000 0.3870 -0.9221
vn -0.0000 0.3487 -0.9372
vn -0.0000 -0.3309 0.9437
vn -0.0000 -0.5242 0.8516
vn -0.0000 -0.1445 0.9895
vn -0.0000 0.1600 -0.9871
vn -0.0000 0.1274 -0.9919
vn -0.0000 -0.3237 0.9462
vn -0.0000 -0.1307 0.9914
vn -0.0000 0.3207 -0.9472
vn -0.0000 0.4587 -0.8886
vn -0.0000 -0.6584 0.7527
vn -0.0000 -0.4585 0.8887
vn -0.0000 0.5221 -0.8529
vn -0.0000 0.6283 -0.7780
vn -0.3146 -0.6216 0.7174
vn 0.3146 -0.6216 0.7174
vn 0.0006 -0.5814 0.8136
vn -0.0006 -0.5814 0.8136
vn -0.0000 0.7970 -0.6040
vn -0.0000 0.4860 -0.8739
vn -0.6464 -0.0453 0.7617
vn -0.0006 -0.0594 0.9982
vn -0.0000 0.6295 0.7770
vn -0.6224 0.4927 0.6082
vn -0.0000 0.9999 -0.0122
vn -0.6194 0.7850 -0.0095
vn -0.0000 0.5608 -0.8279
vn -1.0000 -0.0000 -0.0000
vn -1.0000 -0.0066 0.0012
vn -1.0000 -0.0030 0.0005
vn -0.9999 -0.0122 0.0022
vn -0.0000 0.9999 -0.0161
vn -0.0000 0.9999 -0.0157
vn -0.0000 0.9999 -0.0159
vn -0.0000 -0.5706 -0.8213
vn -0.0000 0.9089 0.4170
vn 0.5443 0.6680 0.5075
vn -0.0000 0.6688 0.7435
vn 0.5160 0.6685 0.5356
vn 0.7537 0.6569 -0.0214
vn 0.7537 0.6570 -0.0148
vn 0.5220 0.6410 -0.5628
vn 0.5288 0.6412 -0.5561
vn -0.0000 0.6288 -0.7776
vn -0.0000 1.0000 -0.0086
vn 0.7174 -0.4994 -0.4857
vn 0.7836 -0.3222 -0.5312
vn -0.0000 -0.0000 -1.0000
vn 0.8564 -0.4952 -0.1462
vn 0.9355 -0.3152 -0.1597
vn 0.8303 -0.4915 0.2626
vn 0.9257 -0.2249 0.3040
vn 0.5399 -0.4654 0.7013
vn 0.6038 -0.1058 0.7901
vn -0.0000 -0.0418 0.9991
vn -0.0000 -0.4457 0.8952
vn -0.0000 -0.5979 0.8016
vn 0.4978 -0.5744 0.6498
vn 0.8137 -0.5305 0.2375
vn 0.8143 -0.5457 -0.1980
vn 0.6286 -0.6180 -0.4721
vn 0.3556 -0.6808 -0.6404
vn -0.0000 -0.7063 -0.7079
vn -0.0000 -0.7018 -0.7124
vn 0.2961 -0.6871 -0.6635
vn 0.5397 -0.6348 -0.5530
vn 0.7769 -0.5497 -0.3071
vn 0.8314 -0.5209 0.1936
vn 0.5168 -0.4873 0.7039
vn -0.0000 -0.5503 0.8350
vn -0.0000 -0.8418 -0.5397
vn 0.3176 -0.8841 -0.3429
vn 0.3164 -0.9468 0.0581
vn -0.0000 -0.9424 0.3345
vn -0.0000 0.8095 -0.5871
vn -0.3851 -0.4567 -0.8020
vn -0.4043 -0.1979 -0.8930
vn 0.6464 -0.0453 0.7617
vn 0.6224 0.4927 0.6082
vn 0.0006 -0.0594 0.9982
vn 0.6194 0.7850 -0.0095
vn 1.0000 -0.0030 0.0005
vn 1.0000 -0.0066 0.0012
vn 0.9999 -0.0122 0.0022
vn -0.5443 0.6680 0.5075
vn -0.5160 0.6685 0.5356
vn -0.7537 0.6569 -0.0214
vn -0.7537 0.6570 -0.0148
vn -0.5220 0.6410 -0.5628
vn -0.5288 0.6412 -0.5561
vn -0.7174 -0.4994 -0.4857
vn -0.7836 -0.3222 -0.5312
vn -0.8564 -0.4952 -0.1462
vn -0.9355 -0.3152 -0.1597
vn -0.8303 -0.4915 0.2626
vn -0.9257 -0.2249 0.3040
vn -0.5399 -0.4654 0.7013
vn -0.6038 -0.1057 0.7901
vn -0.4978 -0.5744 0.6498
vn -0.8137 -0.5305 0.2375
vn -0.8143 -0.5457 -0.1980
vn -0.6286 -0.6180 -0.4721
vn -0.3556 -0.6808 -0.6404
vn -0.2961 -0.6871 -0.6635
vn -0.5397 -0.6348 -0.5530
vn -0.7769 -0.5497 -0.3071
vn -0.8314 -0.5209 0.1936
vn -0.5168 -0.4873 0.7039
vn -0.3176 -0.8841 -0.3429
vn -0.3164 -0.9468 0.0581
vn -0.0000 0.9999 -0.0162
vt 0.677250 0.750389
vt 0.628310 0.750358
vt 0.627432 0.744978
vt 0.678057 0.744690
vt 0.765649 0.905027
vt 0.765739 0.899265
vt 0.922097 0.899264
vt 0.920663 0.905374
vt 0.889555 0.771548
vt 0.890864 0.762785
vt 0.898496 0.765271
vt 0.897435 0.771974
vt 0.626535 0.587469
vt 0.630018 0.608067
vt 0.630935 0.622711
vt 0.639010 0.633423
vt 0.652133 0.637395
vt 0.665209 0.633274
vt 0.673163 0.622470
vt 0.673912 0.607817
vt 0.677161 0.587180
vt 0.683362 0.749666
vt 0.181408 0.956085
vt 0.100988 0.956085
vt 0.100988 0.906261
vt 0.181408 0.906261
vt 0.676579 0.832778
vt 0.629213 0.832443
vt 0.627688 0.754646
vt 0.677925 0.754443
vt 0.676466 0.842620
vt 0.629401 0.842217
vt 0.092658 0.956085
vt 0.078186 0.956085
vt 0.078186 0.906261
vt 0.092658 0.906261
vt 0.684284 0.753522
vt 0.682374 0.832816
vt 0.678553 0.872176
vt 0.627096 0.872587
vt 0.627463 0.856554
vt 0.678326 0.856229
vt 0.682028 0.841287
vt 0.060843 0.956085
vt 0.060843 0.906261
vt 0.684154 0.855251
vt 0.031513 0.956085
vt 0.031513 0.906261
vt 0.677352 0.913114
vt 0.628081 0.913076
vt 0.627510 0.901092
vt 0.677966 0.900874
vt 0.684284 0.872253
vt 0.683879 0.901262
vt 0.683061 0.913195
vt 0.019299 0.956085
vt 0.019299 0.941437
vt 0.019299 0.920909
vt 0.019299 0.906261
vt 0.662746 0.925457
vt 0.642668 0.925441
vt 0.628071 0.925649
vt 0.677343 0.925687
vt 0.957087 0.887533
vt 0.943629 0.880998
vt 0.946809 0.872827
vt 0.961526 0.879822
vt 0.961829 0.890873
vt 0.960355 0.849697
vt 0.972831 0.856478
vt 0.969774 0.862102
vt 0.957298 0.855322
vt 0.967024 0.867163
vt 0.954548 0.860382
vt 0.962600 0.872674
vt 0.952786 0.866853
vt 0.963817 0.843327
vt 0.976185 0.850306
vt 0.942361 0.856691
vt 0.949717 0.855786
vt 0.940731 0.867105
vt 0.936006 0.862894
vt 0.938128 0.879638
vt 0.788660 0.862666
vt 0.780475 0.866576
vt 0.777299 0.874352
vt 0.780475 0.882128
vt 0.788661 0.886037
vt 0.765738 0.849439
vt 0.954480 0.892901
vt 0.941125 0.886416
vt 0.976185 0.874966
vt 0.974922 0.881867
vt 0.973147 0.868656
vt 0.662742 0.930769
vt 0.642664 0.930753
vt 0.960484 0.490635
vt 0.954637 0.490583
vt 0.952341 0.485276
vt 0.961952 0.484730
vt 0.964168 0.494825
vt 0.969821 0.492036
vt 0.964453 0.500646
vt 0.969821 0.502467
vt 0.962922 0.509724
vt 0.960405 0.503910
vt 0.955256 0.504627
vt 0.951206 0.500434
vt 0.950674 0.494881
vt 0.903236 0.756864
vt 0.895694 0.752003
vt 0.759975 0.874352
vt 0.759974 0.866439
vt 0.759974 0.849439
vt 0.759975 0.899265
vt 0.759975 0.882265
vt 0.668708 0.594285
vt 0.659887 0.587278
vt 0.912465 0.746422
vt 0.905309 0.740159
vt 0.948074 0.742410
vt 0.936099 0.739674
vt 0.936949 0.731052
vt 0.950787 0.733940
vt 0.958663 0.747086
vt 0.963008 0.739324
vt 0.974741 0.747704
vt 0.968941 0.755410
vt 0.962516 0.759433
vt 0.954767 0.752123
vt 0.946171 0.747566
vt 0.935782 0.744353
vt 0.907359 0.759212
vt 0.915967 0.750268
vt 0.903708 0.765934
vt 0.902725 0.772241
vt 0.922836 0.772959
vt 0.923450 0.770142
vt 0.924924 0.766643
vt 0.928932 0.761217
vt 0.940589 0.761351
vt 0.933922 0.759844
vt 0.945970 0.764668
vt 0.949342 0.771134
vt 0.931713 0.773165
vt 0.934921 0.770046
vt 0.939095 0.770613
vt 0.941040 0.773256
vt 0.967410 0.892048
vt 0.006955 0.941324
vt 0.006955 0.921021
vt 0.765648 0.843676
vt 0.920663 0.843327
vt 0.922097 0.849437
vt 0.897797 0.778790
vt 0.889923 0.780373
vt 0.622216 0.749753
vt 0.623439 0.832472
vt 0.621372 0.753745
vt 0.623743 0.840920
vt 0.621492 0.855513
vt 0.621361 0.872641
vt 0.622480 0.913156
vt 0.621680 0.901458
vt 0.966385 0.529064
vt 0.970824 0.536775
vt 0.956107 0.543771
vt 0.952928 0.535600
vt 0.971128 0.525724
vt 0.969653 0.566900
vt 0.966596 0.561276
vt 0.979073 0.554495
vt 0.982129 0.560119
vt 0.963846 0.556215
vt 0.976322 0.549434
vt 0.962084 0.549745
vt 0.971898 0.543923
vt 0.985483 0.566291
vt 0.973116 0.573271
vt 0.951659 0.559906
vt 0.959015 0.560811
vt 0.945304 0.553704
vt 0.950029 0.549492
vt 0.947426 0.536959
vt 0.950423 0.530182
vt 0.963778 0.523696
vt 0.984221 0.534730
vt 0.985483 0.541631
vt 0.982445 0.547942
vt 0.945364 0.491909
vt 0.945304 0.502648
vt 0.952908 0.509787
vt 0.901729 0.787977
vt 0.893277 0.791614
vt 0.643808 0.587370
vt 0.635068 0.594477
vt 0.934204 0.806760
vt 0.934293 0.815673
vt 0.919961 0.815261
vt 0.920837 0.806567
vt 0.946771 0.804785
vt 0.948961 0.813799
vt 0.958023 0.800643
vt 0.962054 0.808986
vt 0.974741 0.800962
vt 0.969157 0.792615
vt 0.962715 0.788081
vt 0.954303 0.795200
vt 0.945174 0.799291
vt 0.934008 0.801859
vt 0.921978 0.802014
vt 0.903113 0.778659
vt 0.906231 0.785853
vt 0.923293 0.775818
vt 0.924606 0.779446
vt 0.934395 0.786389
vt 0.928260 0.784896
vt 0.940591 0.785135
vt 0.946035 0.781995
vt 0.949597 0.775434
vt 0.934784 0.776411
vt 0.939137 0.775927
vt 0.976708 0.524549
vt 0.797334 0.882371
vt 0.800388 0.874351
vt 0.797333 0.866332
s 1
f 5/1/1 68/2/1 63/3/2 1/4/2
f 3/5/3 4/6/3 2/7/3 1/8/3
f 67/9/4 41/10/5 50/11/6 120/12/7
f 1/4/2 63/3/2 65/13/8 111/14/9 112/15/10 113/16/10 109/17/10 45/18/10 44/19/10 43/20/9 3/21/8
f 1/4/3 2/22/3 5/1/3
f 64/23/11 71/24/12 8/25/12 2/26/11
f 7/27/13 70/28/13 69/29/14 6/30/14
f 9/31/15 72/32/15 70/28/13 7/27/13
f 5/1/3 2/22/3 6/30/3
f 73/33/16 75/34/17 12/35/17 10/36/16
f 6/30/3 2/37/3 8/38/3 7/27/3
f 6/30/14 69/29/14 68/2/1 5/1/1
f 13/39/18 76/40/18 74/41/19 11/42/19
f 7/27/3 8/38/3 10/43/3 9/31/3
f 11/42/19 74/41/19 72/32/15 9/31/15
f 75/34/17 77/44/20 14/45/20 12/35/17
f 9/31/3 10/43/3 12/46/3 11/42/3
f 71/24/12 73/33/16 10/36/16 8/25/12
f 77/44/20 79/47/21 16/48/21 14/45/20
f 17/49/22 80/50/22 78/51/23 15/52/23
f 11/42/3 12/46/3 14/53/3 13/39/3
f 15/52/3 16/54/3 18/55/3 17/49/3
f 79/47/21 81/56/24 97/57/25 34/58/25 18/59/24 16/48/21
f 13/39/3 14/53/3 16/54/3 15/52/3
f 15/52/23 78/51/23 76/40/18 13/39/18
f 33/60/26 96/61/27 86/62/28 80/50/22 17/49/22 23/63/29
f 19/64/30 20/65/30 22/66/31 21/67/31
f 18/68/3 19/64/3 21/67/3
f 25/69/32 24/70/33 26/71/34 27/72/35
f 27/72/35 26/71/34 28/73/36 29/74/37
f 29/74/37 28/73/36 30/75/38 31/76/38
f 21/67/31 22/66/31 31/76/38 30/75/38
f 24/70/33 25/69/32 33/77/26 23/78/29
f 25/79/32 27/80/35 29/74/37 31/76/39
f 31/76/39 22/66/40 32/81/41 33/82/26 25/79/32
f 22/66/40 20/65/42 34/83/42 32/81/41
f 101/84/43 100/85/44 98/86/44 35/87/44 36/88/43 4/6/45 66/89/45
f 20/65/46 19/64/46 18/90/46 34/91/46
f 21/67/3 30/75/3 24/92/3 23/93/3
f 30/75/3 28/73/3 26/94/3 24/92/3
f 32/95/47 95/96/47 96/61/47 33/60/47
f 38/97/48 104/98/49 99/99/49 37/100/50
f 39/101/51 38/97/48 37/100/50 36/102/52
f 40/103/53 39/101/51 36/102/52 35/104/54
f 40/103/53 35/104/54 98/105/55 107/106/55
f 107/106/56 106/107/56 105/108/56 103/109/56 104/98/56 38/97/56 39/101/56 40/103/56
f 49/110/57 50/11/6 41/10/5 42/111/58
f 67/112/59 108/113/59 65/114/59 66/89/59 4/6/59 3/115/59 41/116/59
f 3/21/8 43/20/9 42/117/8 41/118/8
f 48/119/60 49/110/57 42/111/58 43/120/61
f 47/121/62 48/122/60 43/123/61 44/124/63
f 46/125/64 47/121/62 44/124/63 45/126/65
f 109/127/66 114/128/67 46/125/64 45/126/65
f 127/129/68 55/130/69 46/125/64 114/128/67
f 54/131/70 47/121/62 46/125/64 55/130/69
f 53/132/71 48/122/60 47/121/62 54/131/70
f 52/133/72 49/110/57 48/119/60 53/134/71
f 51/135/73 50/11/6 49/110/57 52/133/72
f 121/136/74 120/12/7 50/11/6 51/135/73
f 134/137/75 121/136/74 51/135/73 60/138/76
f 59/139/77 60/138/76 51/135/73 52/133/72
f 58/140/78 59/139/77 52/133/72 53/134/71
f 57/141/79 58/142/78 53/132/71 54/131/70
f 56/143/80 57/141/79 54/131/70 55/130/69
f 128/144/81 56/143/80 55/130/69 127/129/68
f 134/137/75 60/138/76 136/145/82
f 61/146/83 136/145/82 60/138/76 59/139/77
f 59/139/77 58/140/78 61/146/83
f 62/147/84 61/146/83 58/142/78 57/141/79
f 57/141/79 56/143/80 62/147/84
f 62/147/84 56/143/80 128/144/81 135/148/85
f 23/93/3 17/149/3 18/68/3 21/67/3
f 34/58/25 97/57/25 95/150/86 32/151/86
f 65/152/39 63/153/39 64/154/39 66/89/39
f 67/9/4 120/12/7 119/155/87 108/156/88
f 63/3/39 68/2/39 64/157/39
f 68/2/39 69/29/39 64/157/39
f 69/29/39 70/28/39 71/158/39 64/159/39
f 70/28/39 72/32/39 73/160/39 71/158/39
f 72/32/39 74/41/39 75/161/39 73/160/39
f 74/41/39 76/40/39 77/162/39 75/161/39
f 78/51/39 80/50/39 81/163/39 79/164/39
f 76/40/39 78/51/39 79/164/39 77/162/39
f 82/165/30 84/166/31 85/167/31 83/168/30
f 81/169/39 84/166/39 82/165/39
f 88/170/89 90/171/90 89/172/34 87/173/91
f 90/171/90 92/174/92 91/175/36 89/172/34
f 92/174/92 94/176/38 93/177/38 91/175/36
f 84/166/31 93/177/38 94/176/38 85/167/31
f 87/173/91 86/178/28 96/179/27 88/170/89
f 88/180/89 94/176/3 92/174/92 90/181/90
f 94/176/3 88/180/89 96/182/27 95/183/93 85/167/94
f 85/167/94 95/183/93 97/184/95 83/168/95
f 83/168/46 97/185/46 81/186/46 82/165/46
f 84/166/39 86/187/39 87/188/39 93/177/39
f 93/177/39 87/188/39 89/189/39 91/175/39
f 103/109/96 102/190/97 99/99/49 104/98/49
f 105/108/98 101/191/99 102/190/97 103/109/96
f 106/107/100 100/192/101 101/191/99 105/108/98
f 106/107/100 107/106/55 98/105/55 100/192/101
f 118/193/102 110/194/103 108/156/88 119/155/87
f 65/13/8 108/195/8 110/196/8 111/14/9
f 117/197/104 111/198/105 110/199/103 118/200/102
f 116/201/106 112/202/107 111/198/105 117/197/104
f 115/203/108 113/204/109 112/202/107 116/201/106
f 109/205/66 113/204/109 115/203/108 114/206/67
f 127/207/68 114/206/67 115/203/108 126/208/110
f 125/209/111 126/208/110 115/203/108 116/201/106
f 124/210/112 125/209/111 116/201/106 117/197/104
f 123/211/113 124/210/112 117/197/104 118/200/102
f 122/212/114 123/213/113 118/193/102 119/155/87
f 121/136/74 122/212/114 119/155/87 120/12/7
f 134/137/75 133/214/115 122/212/114 121/136/74
f 132/215/116 123/213/113 122/212/114 133/214/115
f 131/216/117 124/210/112 123/211/113 132/217/116
f 130/218/118 125/209/111 124/210/112 131/216/117
f 129/219/119 126/208/110 125/209/111 130/218/118
f 128/220/81 127/207/68 126/208/110 129/219/119
f 134/137/75 136/145/82 133/214/115
f 137/221/120 132/215/116 133/214/115 136/145/82
f 132/217/116 137/221/120 131/216/117
f 138/222/121 130/218/118 131/216/117 137/221/120
f 130/218/118 138/222/121 129/219/119
f 138/222/121 135/148/85 128/220/81 129/219/119
f 86/187/39 84/166/39 81/169/39 80/223/39
f 66/89/45 64/154/122 2/7/122 4/6/45 36/88/43 37/224/122 99/225/122 102/226/122 101/84/43
f 137/221/120 136/145/82 61/146/83 62/147/84 135/148/85 138/222/121
